<?xml version="1.0" standalone="no"?>
<!DOCTYPE svg PUBLIC "-//W3C//DTD SVG 20010904//EN"
 "http://www.w3.org/TR/2001/REC-SVG-20010904/DTD/svg10.dtd">
<svg version="1.0" xmlns="http://www.w3.org/2000/svg"
 width="512.000000pt" height="512.000000pt" viewBox="0 0 512.000000 512.000000"
 preserveAspectRatio="xMidYMid meet">

<g transform="translate(0.000000,512.000000) scale(0.100000,-0.100000)"
fill="#000000" stroke="none">
<path d="M2519 4488 c-39 -42 -156 -202 -221 -303 -661 -1027 -636 -2004 80
-3034 90 -129 160 -211 182 -211 52 0 309 376 450 659 361 721 384 1383 75
2099 -97 223 -247 480 -395 677 -87 115 -106 135 -130 135 -11 0 -29 -10 -41
-22z"/>
<path d="M1191 4351 c-34 -34 -120 -336 -160 -560 -32 -175 -37 -160 77 -205
109 -43 336 -154 426 -209 l60 -36 32 107 c42 137 91 272 143 391 48 111 57
92 -95 217 -166 137 -424 314 -457 314 -4 0 -16 -9 -26 -19z"/>
<path d="M3812 4321 c-134 -80 -441 -314 -490 -374 -11 -12 -5 -33 33 -118 48
-107 165 -444 165 -474 0 -14 7 -13 48 11 142 84 362 191 480 234 55 20 62 26
62 50 0 45 -38 243 -74 383 -61 239 -101 337 -134 337 -5 0 -45 -22 -90 -49z"/>
<path d="M21 3524 c-22 -16 -23 -21 -17 -83 20 -202 87 -504 159 -717 261
-770 709 -1257 1427 -1548 172 -69 492 -167 505 -154 2 2 -26 48 -61 103 -248
383 -427 835 -489 1240 -20 129 -30 466 -18 577 l9 78 -67 44 c-330 219 -835
400 -1274 455 -49 7 -104 14 -120 16 -19 3 -40 -1 -54 -11z"/>
<path d="M4950 3524 c-474 -63 -965 -238 -1311 -468 l-55 -36 9 -78 c14 -125
2 -459 -22 -602 -74 -438 -249 -860 -535 -1293 -22 -32 -17 -33 68 -11 221 56
486 156 676 255 576 302 947 753 1177 1433 72 214 138 510 158 717 7 62 5 68
-16 83 -13 9 -28 16 -34 15 -5 -1 -57 -7 -115 -15z"/>
<path d="M188 1725 c-119 -81 -188 -141 -188 -164 0 -10 25 -56 56 -102 262
-392 604 -682 934 -792 133 -44 187 -52 355 -52 130 1 180 5 263 23 102 23
299 86 315 101 4 5 -20 16 -55 26 -638 179 -1156 502 -1501 938 -38 48 -72 87
-76 87 -4 0 -50 -29 -103 -65z"/>
<path d="M4753 1703 c-38 -49 -105 -126 -148 -172 -304 -322 -791 -603 -1303
-752 -62 -18 -109 -36 -105 -40 16 -15 214 -78 315 -101 83 -18 133 -22 263
-23 99 0 183 5 220 14 356 81 699 329 988 717 116 155 146 208 131 232 -21 34
-259 212 -284 212 -4 0 -39 -39 -77 -87z"/>
</g>
</svg>
