<?xml version="1.0" standalone="no"?>
<!DOCTYPE svg PUBLIC "-//W3C//DTD SVG 20010904//EN"
 "http://www.w3.org/TR/2001/REC-SVG-20010904/DTD/svg10.dtd">
<svg version="1.0" xmlns="http://www.w3.org/2000/svg"
 width="1525.000000pt" height="1525.000000pt" viewBox="0 0 1525.000000 1525.000000"
 preserveAspectRatio="xMidYMid meet">

<g transform="translate(0.000000,1525.000000) scale(0.100000,-0.100000)"
fill="#000000" stroke="none">
<path d="M7155 15044 c-538 -41 -933 -102 -1370 -214 -495 -126 -944 -293
-1403 -520 -959 -474 -1785 -1138 -2451 -1970 -652 -815 -1122 -1764 -1371
-2774 -361 -1458 -255 -3021 300 -4411 268 -671 631 -1292 1084 -1855 280
-348 659 -735 991 -1012 1643 -1370 3776 -1942 5885 -1577 1731 299 3298 1229
4404 2614 212 264 420 567 592 860 112 190 321 605 404 800 291 687 477 1415
544 2130 25 261 25 268 32 560 29 1237 -265 2474 -846 3555 -611 1139 -1504
2086 -2598 2759 -845 519 -1780 855 -2772 995 -341 49 -489 58 -945 61 -236 1
-452 1 -480 -1z m-495 -3814 c768 -1074 905 -1266 1173 -1640 159 -223 293
-409 297 -413 6 -7 92 81 410 423 124 134 152 164 431 460 80 85 210 225 289
310 79 85 180 193 224 240 45 47 137 146 206 220 69 74 227 243 350 375 123
132 261 279 306 328 l83 87 555 -2 556 -3 -333 -355 c-182 -196 -813 -871
-1402 -1500 -588 -630 -1096 -1173 -1128 -1206 l-58 -62 454 -633 c249 -349
727 -1016 1062 -1484 335 -467 846 -1182 1137 -1588 290 -405 528 -740 528
-742 0 -3 -683 -5 -1518 -5 l-1518 0 -40 58 c-22 31 -314 440 -649 907 -334
468 -737 1030 -894 1249 l-285 399 -26 -30 c-14 -17 -562 -605 -1219 -1307
l-1194 -1276 -553 0 c-305 0 -554 2 -554 4 0 3 6 11 13 18 25 28 144 156 222
239 44 46 136 145 205 219 179 192 390 418 580 620 90 96 191 204 225 240 33
36 96 104 140 151 141 150 329 351 354 378 25 28 212 228 345 371 44 47 118
126 165 175 48 50 140 149 206 220 66 72 154 166 195 210 42 44 109 116 150
160 41 44 111 118 155 165 45 47 87 93 94 102 11 15 -44 96 -430 635 -243 340
-726 1014 -1073 1498 -346 484 -684 957 -751 1050 -67 94 -271 379 -454 634
-183 255 -335 470 -338 477 -4 12 230 14 1513 12 l1518 -3 276 -385z"/>
<path d="M4920 10805 c0 -4 117 -168 1206 -1690 1499 -2093 1824 -2547 2409
-3365 340 -476 627 -875 638 -887 l20 -23 519 0 c285 0 518 3 518 6 0 8 -102
151 -720 1014 -266 371 -527 736 -580 810 -53 74 -336 470 -630 880 -293 410
-599 837 -680 950 -80 113 -364 509 -630 880 -266 371 -605 845 -753 1053
l-271 377 -523 0 c-288 0 -523 -2 -523 -5z"/>
</g>
</svg>
