<?xml version="1.0" standalone="no"?>
<!DOCTYPE svg PUBLIC "-//W3C//DTD SVG 20010904//EN"
 "http://www.w3.org/TR/2001/REC-SVG-20010904/DTD/svg10.dtd">
<svg version="1.0" xmlns="http://www.w3.org/2000/svg"
 width="1556.000000pt" height="1556.000000pt" viewBox="0 0 1556.000000 1556.000000"
 preserveAspectRatio="xMidYMid meet">

<g transform="translate(0.000000,1556.000000) scale(0.100000,-0.100000)"
fill="#000000" stroke="none">
<path d="M7340 15060 c-1283 -96 -2438 -487 -3495 -1185 -586 -387 -1149 -895
-1596 -1441 -871 -1064 -1413 -2325 -1583 -3684 -43 -344 -51 -483 -51 -910 1
-394 6 -500 41 -810 127 -1134 530 -2237 1166 -3189 599 -896 1408 -1664 2328
-2208 925 -548 1918 -870 3015 -979 216 -21 887 -30 1122 -15 1407 91 2715
568 3843 1402 460 339 890 745 1255 1184 995 1195 1574 2662 1663 4210 14 255
7 836 -13 1025 -3 25 -12 110 -20 190 -76 717 -283 1481 -583 2150 -629 1402
-1695 2576 -3029 3334 -811 460 -1713 763 -2628 881 -318 41 -421 47 -870 50
-247 2 -502 -1 -565 -5z m-1825 -3445 c87 -24 250 -105 322 -159 384 -291 484
-841 227 -1239 -188 -291 -494 -451 -829 -434 -360 19 -653 216 -806 542 -59
126 -82 235 -82 390 1 200 47 355 154 514 135 203 337 340 584 397 82 19 347
12 430 -11z m4273 -2306 c752 -82 1306 -578 1480 -1324 58 -248 57 -213 57
-1785 l0 -1445 -28 -60 c-34 -73 -76 -118 -142 -153 l-50 -27 -539 -3 c-612
-3 -598 -5 -686 75 -28 25 -63 69 -78 97 l-27 51 -5 1200 -5 1200 -24 70 c-86
257 -264 440 -506 521 -117 38 -297 45 -415 15 -285 -72 -492 -274 -573 -559
-21 -77 -22 -84 -27 -1267 l-5 -1190 -23 -42 c-33 -63 -74 -106 -134 -139
l-53 -29 -541 -3 c-529 -3 -543 -2 -597 18 -68 26 -134 86 -167 155 l-25 50 0
2100 0 2100 25 50 c33 69 99 129 167 155 54 20 68 21 597 18 540 -3 541 -3
583 -26 67 -35 110 -79 143 -144 29 -59 30 -66 30 -190 0 -70 3 -128 8 -127 4
0 30 28 57 61 28 34 91 97 140 140 367 323 886 490 1363 437z m-3760 -165 l22
-15 0 -2290 c0 -2276 0 -2289 -20 -2309 -20 -20 -33 -20 -755 -20 -722 0 -735
0 -755 20 -20 20 -20 33 -20 2305 0 2272 0 2285 20 2305 20 20 33 20 753 20
647 0 735 -2 755 -16z"/>
</g>
</svg>
