<?xml version="1.0" standalone="no"?>
<!DOCTYPE svg PUBLIC "-//W3C//DTD SVG 20010904//EN"
 "http://www.w3.org/TR/2001/REC-SVG-20010904/DTD/svg10.dtd">
<svg version="1.0" xmlns="http://www.w3.org/2000/svg"
 width="1503.000000pt" height="1518.000000pt" viewBox="0 0 1503.000000 1518.000000"
 preserveAspectRatio="xMidYMid meet">

<g transform="translate(0.000000,1518.000000) scale(0.100000,-0.100000)"
fill="#000000" stroke="none">
<path d="M7030 14924 c-19 -2 -98 -8 -175 -14 -1653 -125 -3248 -854 -4454
-2035 -1214 -1188 -1967 -2749 -2135 -4425 -41 -407 -46 -990 -12 -1370 73
-797 271 -1575 581 -2275 991 -2238 3022 -3820 5419 -4220 456 -76 795 -100
1320 -92 388 6 484 12 776 48 1110 137 2177 534 3105 1152 814 543 1496 1230
2038 2052 682 1035 1072 2190 1169 3465 15 202 15 802 -1 1000 -77 992 -310
1854 -731 2705 -710 1433 -1862 2579 -3304 3286 -802 393 -1577 611 -2511 706
-140 14 -989 28 -1085 17z m3755 -4173 c310 -65 571 -248 734 -513 56 -92 97
-188 130 -307 l26 -96 3 -2080 c2 -1546 0 -2099 -9 -2155 -65 -419 -354 -763
-751 -896 -171 -56 36 -53 -3464 -54 -3549 0 -3288 -4 -3478 60 -410 138 -702
509 -746 948 -8 74 -10 720 -8 2127 3 1866 5 2025 21 2090 56 230 143 396 285
546 158 168 359 281 587 329 87 18 192 19 3335 19 3142 1 3248 0 3335 -18z"/>
<path d="M6463 8846 c-69 -33 -127 -95 -153 -162 -20 -54 -20 -73 -20 -974 0
-901 0 -920 20 -974 43 -114 150 -186 277 -186 l73 0 912 456 c502 251 927
466 944 479 16 13 45 52 64 86 30 56 34 72 33 139 0 89 -26 153 -85 212 -29
29 -241 140 -943 490 l-905 453 -83 3 c-70 2 -89 -1 -134 -22z"/>
</g>
</svg>
